# xmcd
# 
# Track frame offsets:
#     150
#     14743
#     41634
#     57017
# 
# Disc length: 907
# 
# Revision: 1
# Processed by: cddbd v1.5.2PL0 Copyright (c) Steve Scherf et al.
# Submitted via: fre:ac v1.0.17
# 
DISCID=2e038904
DTITLE=Various Artist - I LOVE YOU  -now and forever- [Disc 3]
DYEAR=2102
DGENRE=JPop
TTITLE0=小林克也 and ザ・ナンバーワン・バンド - 六本木のベンちゃん
TTITLE1=Real Fish featuring 桑田佳祐・いとうせいこう - ジャンクビート東京
TTITLE2=桑田佳祐 - LONG DISTANCE LOVE
TTITLE3=ユースケ・サンタマリア - 突然の吐き気 ～えりの思い出～
EXTD=
EXTT0=
EXTT1=
EXTT2=
EXTT3=
PLAYORDER=
